# xmcd CD database file
#
# Track frame offsets:
#	183
#	24725
#	48478
#	72408
#	93000
#	120353
#	141885
#	165088
#	187103
#	213900
#
# Disc length: 3216 seconds
#
# Revision: 6
# Processed by: cddbd v1.5.2PL0 Copyright (c) Steve Scherf et al.
# Submitted via: CDex 1.70beta2
#
DISCID=820c8e0a
DTITLE=John Mayall - Uncle John's Nickel
DYEAR=1988
DGENRE=Blues
TTITLE0=Chicago Line
TTITLE1=Gimme One More Day
TTITLE2=One Life To Live
TTITLE3=The Last Time
TTITLE4=Dream About The Blues
TTITLE5=Fascinatin' Lover
TTITLE6=Cold Blooded Woman
TTITLE7=The Dirty Dozen
TTITLE8=Tears Came Rollin' Down
TTITLE9=Life In The Jungle
EXTD=YEAR: 1988
EXTT0=
EXTT1=
EXTT2=
EXTT3=
EXTT4=
EXTT5=
EXTT6=
EXTT7=
EXTT8=
EXTT9=
PLAYORDER=
